<svg width="120" height="82" viewBox="0 0 120 82" fill="none" xmlns="http://www.w3.org/2000/svg">
<path d="M88.2134 70.2618H88.6489L90.8517 76.7677H85.8826L88.2134 70.2618ZM34.0662 70.2618H34.5016L36.7044 76.7677H31.7353L34.0662 70.2618ZM17.1868 70.0569H20.9776C22.4376 70.0569 23.334 70.7228 23.334 72.439C23.334 74.2063 22.3863 74.7954 20.9776 74.7954H20.6702L17.1868 70.2618V70.0569ZM9.16969 76.1529C9.16969 78.6887 8.01708 80.3792 5.58378 80.3792C3.12487 80.3792 1.99787 78.6887 1.99787 76.1529V74.1038C1.99787 71.44 3.12487 69.8776 5.58378 69.8776C8.0683 69.8776 9.16969 71.5169 9.16969 74.1038V76.1529ZM118.412 79.5595H118.258L112.47 68.725H110.011V81.5318H111.599V70.6716H111.752L117.515 81.5318H120V68.725H118.412V79.5595ZM100.534 70.0057V80.2511H96.8965V81.5318H105.861V80.2511H102.275V70.0057H105.861V68.725H96.8965V70.0057H100.534ZM82.4504 81.5318H84.1665L85.3959 78.0996H91.3127L92.4653 81.5318H94.3607L89.7503 68.725H87.1377L82.4504 81.5318ZM70.6681 74.3856V68.725H68.9264V81.5318H70.6681V75.7175H77.1483V81.5318H78.8901V68.725H77.1483V74.3856H70.6681ZM46.3863 70.0057V80.2511H42.7492V81.5318H51.714V80.2511H48.1281V70.0057H51.714V68.725H42.7492V70.0057H46.3863ZM28.3031 81.5318H30.0192L31.2487 78.0996H37.1654L38.318 81.5318H40.2134L35.603 68.725H32.9904L28.3031 81.5318ZM25.2551 72.439C25.2551 69.98 23.6414 68.725 21.0288 68.725H15.0352V70.0313L18.698 74.7954H15.0352V81.5318H16.7769V76.1273H19.7225L23.8719 81.5318H25.8442L21.6179 76.0249C23.8463 75.7175 25.2551 74.7442 25.2551 72.439ZM60.4482 69.9032C61.9082 69.9032 62.7535 70.4411 63.445 71.9523L65.0075 71.3376C64.0085 69.3909 62.7279 68.5713 60.4482 68.5713C56.4269 68.5713 54.8901 71.1839 54.8901 75.1028C54.8901 79.0729 56.4525 81.6855 60.2689 81.6855C62.5998 81.6855 63.9061 80.7378 64.9306 78.8936L63.445 78.3045C62.8047 79.7645 61.9594 80.3536 60.3458 80.3536C57.81 80.3536 56.8623 78.6631 56.8623 76.1529V74.1038C56.8623 71.6705 57.7332 69.9032 60.4482 69.9032V69.9032ZM5.66062 68.5713C2.07471 68.5713 0 70.9534 0 75.2052C0 79.3034 1.94664 81.6855 5.53255 81.6855C9.09285 81.6855 11.1163 79.3034 11.1163 75.0515C11.1163 70.9534 9.22092 68.5713 5.66062 68.5713V68.5713Z" fill="white"/>
<g clip-path="url(#clip0_708_4294)">
<path d="M55.5847 21.9626L57.2144 26.7757H53.5382L55.2626 21.9626H55.5847ZM64.3772 29.3528H61.6864V30.3003H68.3187V29.3528H65.6658V21.7731H68.3187V20.8256H61.6864V21.7731H64.3772V29.3528ZM52.2686 30.3003L53.1782 27.7611H57.5555L58.4082 30.3003H59.8104L56.3996 20.8256H54.4667L50.999 30.3003H52.2686ZM73.6056 39.3202H46.3943V12.1089H73.6056V39.3202Z" fill="white"/>
<path d="M62.6528 51.4286C74.7994 50.1779 84.4636 40.5137 85.7143 28.3672H82.5119C81.3749 38.903 73.3972 47.2976 62.6528 48.4914V51.4286Z" fill="white"/>
<path d="M34.2856 28.3672C35.5363 40.5137 45.2005 50.1779 57.347 51.4286V48.4914C46.6027 47.2976 38.644 38.8841 37.4881 28.3672H34.2856Z" fill="white"/>
<path d="M85.7143 23.0614C84.4636 10.9148 74.7994 1.25066 62.6528 0V2.93715C73.3972 4.13096 81.3559 12.5445 82.5119 23.0614H85.7143Z" fill="white"/>
<path d="M57.347 0C45.2005 1.25066 35.5363 10.9148 34.2856 23.0614H37.4881C38.625 12.5255 46.6027 4.13096 57.347 2.93715V0Z" fill="white"/>
</g>
<defs>
<clipPath id="clip0_708_4294">
<rect width="51.4286" height="51.4286" fill="white" transform="translate(34.2856)"/>
</clipPath>
</defs>
</svg>
