<svg width="140" height="16" viewBox="0 0 140 16" fill="none" xmlns="http://www.w3.org/2000/svg">
<g clip-path="url(#clip0_692_1819)">
<path d="M102.916 1.97225H103.424L105.994 9.56243H100.196L102.916 1.97225ZM39.7439 1.97225H40.2519L42.8218 9.56243H37.0245L39.7439 1.97225ZM20.0512 1.73319H24.4739C26.1772 1.73319 27.2231 2.51014 27.2231 4.51227C27.2231 6.57417 26.1174 7.26147 24.4739 7.26147H24.1153L20.0512 1.97225V1.73319ZM10.698 8.84525C10.698 11.8036 9.35326 13.7759 6.51441 13.7759C3.64568 13.7759 2.33084 11.8036 2.33084 8.84525V6.45464C2.33084 3.34685 3.64568 1.52401 6.51441 1.52401C9.41302 1.52401 10.698 3.4365 10.698 6.45464V8.84525ZM138.147 12.8196H137.968L131.215 0.179296H128.346V15.1206H130.199V2.45037H130.378L137.101 15.1206H140V0.179296H138.147V12.8196ZM117.289 1.67343V13.6265H113.046V15.1206H123.505V13.6265H119.321V1.67343H123.505V0.179296H113.046V1.67343H117.289ZM96.1921 15.1206H98.1942L99.6286 11.1163H106.531L107.876 15.1206H110.088L104.709 0.179296H101.661L96.1921 15.1206ZM82.4461 6.78335V0.179296H80.4141V15.1206H82.4461V8.33725H90.0064V15.1206H92.0384V0.179296H90.0064V6.78335H82.4461ZM54.1174 1.67343V13.6265H49.8741V15.1206H60.333V13.6265H56.1494V1.67343H60.333V0.179296H49.8741V1.67343H54.1174ZM33.0203 15.1206H35.0224L36.4568 11.1163H43.3597L44.7044 15.1206H46.9157L41.5368 0.179296H38.4888L33.0203 15.1206ZM29.4642 4.51227C29.4642 1.64354 27.5816 0.179296 24.5336 0.179296H17.5411V1.70331L21.8143 7.26147H17.5411V15.1206H19.5731V8.81537H23.0096L27.8506 15.1206H30.1515L25.2209 8.69584C27.8207 8.33725 29.4642 7.20171 29.4642 4.51227ZM70.5229 1.5539C72.2263 1.5539 73.2124 2.18143 74.0192 3.9445L75.842 3.22732C74.6766 0.956243 73.1825 0 70.5229 0C65.8314 0 64.0384 3.04803 64.0384 7.62006C64.0384 12.2519 65.8613 15.2999 70.3138 15.2999C73.0331 15.2999 74.5571 14.1942 75.7524 12.0427L74.0192 11.3554C73.2721 13.0587 72.286 13.746 70.4034 13.746C67.445 13.746 66.3394 11.7737 66.3394 8.84525V6.45464C66.3394 3.61579 67.3554 1.5539 70.5229 1.5539ZM6.60406 0C2.42049 0 0 2.77908 0 7.73959C0 12.5208 2.27108 15.2999 6.45464 15.2999C10.6083 15.2999 12.9691 12.5208 12.9691 7.5603C12.9691 2.77908 10.7577 0 6.60406 0Z" fill="black"/>
</g>
<defs>
<clipPath id="clip0_692_1819">
<rect width="140" height="15.2999" fill="white"/>
</clipPath>
</defs>
</svg>
